<svg width="132" height="24" viewBox="0 0 132 24" fill="none" xmlns="http://www.w3.org/2000/svg">
<path d="M36.0284 11.7273C36.0284 13.3466 35.7135 14.7126 35.0838 15.8253C34.4541 16.9332 33.6042 17.7737 32.5341 18.3466C31.464 18.9148 30.2708 19.1989 28.9545 19.1989C27.6288 19.1989 26.4309 18.9124 25.3608 18.3395C24.2955 17.7618 23.4479 16.919 22.8182 15.8111C22.1932 14.6984 21.8807 13.3371 21.8807 11.7273C21.8807 10.108 22.1932 8.74432 22.8182 7.63636C23.4479 6.52367 24.2955 5.68324 25.3608 5.11506C26.4309 4.54214 27.6288 4.25568 28.9545 4.25568C30.2708 4.25568 31.464 4.54214 32.5341 5.11506C33.6042 5.68324 34.4541 6.52367 35.0838 7.63636C35.7135 8.74432 36.0284 10.108 36.0284 11.7273ZM31.9659 11.7273C31.9659 10.8561 31.8499 10.1222 31.6179 9.52557C31.3906 8.92424 31.0521 8.4697 30.6023 8.16193C30.1572 7.84943 29.608 7.69318 28.9545 7.69318C28.3011 7.69318 27.7495 7.84943 27.2997 8.16193C26.8546 8.4697 26.5161 8.92424 26.2841 9.52557C26.0568 10.1222 25.9432 10.8561 25.9432 11.7273C25.9432 12.5985 26.0568 13.3348 26.2841 13.9361C26.5161 14.5327 26.8546 14.9872 27.2997 15.2997C27.7495 15.6075 28.3011 15.7614 28.9545 15.7614C29.608 15.7614 30.1572 15.6075 30.6023 15.2997C31.0521 14.9872 31.3906 14.5327 31.6179 13.9361C31.8499 13.3348 31.9659 12.5985 31.9659 11.7273ZM46.0634 4.45455H50.0123V13.7727C50.0123 14.8807 49.7471 15.8395 49.2168 16.6491C48.6913 17.4541 47.9574 18.0767 47.0151 18.517C46.0729 18.9527 44.9791 19.1705 43.7339 19.1705C42.4791 19.1705 41.3807 18.9527 40.4384 18.517C39.4962 18.0767 38.7623 17.4541 38.2367 16.6491C37.7159 15.8395 37.4555 14.8807 37.4555 13.7727V4.45455H41.4043V13.4318C41.4043 13.8816 41.5038 14.2841 41.7026 14.6392C41.9015 14.9896 42.1761 15.2642 42.5265 15.4631C42.8816 15.6619 43.2841 15.7614 43.7339 15.7614C44.1884 15.7614 44.5909 15.6619 44.9413 15.4631C45.2916 15.2642 45.5663 14.9896 45.7651 14.6392C45.964 14.2841 46.0634 13.8816 46.0634 13.4318V4.45455ZM55.4379 4.45455V19H51.4891V4.45455H55.4379Z" fill="#FF2727"/>
<path d="M60.8866 4.45455L63.8696 14.7102H63.9832L66.9662 4.45455H71.4264L66.6253 19H61.2276L56.4264 4.45455H60.8866ZM76.3762 4.45455V19H72.4273V4.45455H76.3762ZM85.6886 9C85.6507 8.52652 85.4731 8.1572 85.1559 7.89205C84.8434 7.62689 84.3675 7.49432 83.7283 7.49432C83.3211 7.49432 82.9873 7.54403 82.7269 7.64347C82.4712 7.73816 82.2818 7.86837 82.1587 8.03409C82.0356 8.19981 81.9717 8.3892 81.967 8.60227C81.9575 8.77746 81.9883 8.93608 82.0593 9.07812C82.1351 9.21544 82.2534 9.34091 82.4144 9.45455C82.5754 9.56345 82.7814 9.66288 83.0323 9.75284C83.2833 9.8428 83.5816 9.9233 83.9272 9.99432L85.1204 10.25C85.9253 10.4205 86.6142 10.6454 87.1871 10.9247C87.7601 11.2041 88.2288 11.5331 88.5934 11.9119C88.958 12.286 89.2255 12.7074 89.396 13.1761C89.5711 13.6449 89.6611 14.1562 89.6658 14.7102C89.6611 15.6667 89.422 16.4763 88.9485 17.1392C88.475 17.8021 87.7979 18.3063 86.9173 18.652C86.0413 18.9976 84.9878 19.1705 83.7567 19.1705C82.4925 19.1705 81.3893 18.9834 80.4471 18.6094C79.5096 18.2353 78.7804 17.66 78.2596 16.8835C77.7435 16.1023 77.4831 15.1032 77.4783 13.8864H81.2283C81.252 14.3314 81.3633 14.7055 81.5621 15.0085C81.761 15.3116 82.0404 15.5412 82.4002 15.6974C82.7648 15.8537 83.198 15.9318 83.6999 15.9318C84.1213 15.9318 84.4741 15.8797 84.7582 15.7756C85.0423 15.6714 85.2577 15.527 85.4045 15.3423C85.5513 15.1577 85.627 14.947 85.6317 14.7102C85.627 14.4877 85.5536 14.2936 85.4116 14.1278C85.2743 13.9574 85.047 13.8059 84.7298 13.6733C84.4125 13.536 83.984 13.4081 83.4442 13.2898L81.9954 12.9773C80.7075 12.6979 79.6919 12.2315 78.9485 11.5781C78.2099 10.92 77.8429 10.0227 77.8477 8.88636C77.8429 7.96307 78.0891 7.15578 78.5863 6.46449C79.0882 5.76847 79.7818 5.22633 80.6673 4.83807C81.5574 4.44981 82.5778 4.25568 83.7283 4.25568C84.9026 4.25568 85.9182 4.45218 86.7752 4.84517C87.6322 5.23816 88.2927 5.79214 88.7567 6.5071C89.2255 7.21733 89.4622 8.0483 89.467 9H85.6886ZM94.7168 4.45455V19H90.768V4.45455H94.7168ZM96.1883 19V4.45455H102.495C103.603 4.45455 104.533 4.60369 105.286 4.90199C106.044 5.20028 106.614 5.62169 106.998 6.16619C107.386 6.7107 107.58 7.35227 107.58 8.09091C107.58 8.62595 107.462 9.11364 107.225 9.55398C106.993 9.99432 106.666 10.3636 106.245 10.6619C105.824 10.9555 105.331 11.1591 104.768 11.2727V11.4148C105.393 11.4384 105.961 11.5971 106.472 11.8906C106.984 12.1795 107.391 12.5795 107.694 13.0909C107.997 13.5975 108.149 14.1941 108.149 14.8807C108.149 15.6761 107.94 16.384 107.524 17.0043C107.112 17.6245 106.524 18.1122 105.762 18.4673C105 18.8224 104.091 19 103.035 19H96.1883ZM100.137 15.8466H101.984C102.647 15.8466 103.144 15.7235 103.475 15.4773C103.807 15.2263 103.972 14.857 103.972 14.3693C103.972 14.0284 103.894 13.7396 103.738 13.5028C103.582 13.2661 103.359 13.0862 103.07 12.9631C102.786 12.84 102.443 12.7784 102.041 12.7784H100.137V15.8466ZM100.137 10.3352H101.756C102.102 10.3352 102.408 10.2808 102.673 10.1719C102.938 10.063 103.144 9.90672 103.291 9.70312C103.442 9.49479 103.518 9.24148 103.518 8.94318C103.518 8.49337 103.357 8.15009 103.035 7.91335C102.713 7.67188 102.306 7.55114 101.813 7.55114H100.137V10.3352ZM109.148 19V4.45455H113.097V15.8182H118.977V19H109.148ZM120.173 19V4.45455H130.656V7.63636H124.122V10.1364H130.117V13.3182H124.122V15.8182H130.628V19H120.173Z" fill="white"/>
<path d="M1.30221 5.39332C1.32703 5.1613 1.61527 5.10442 1.74802 5.29632L3.97125 8.51024C4.58579 9.39862 5.92339 9.31916 6.42844 8.36427L9.69842 2.18166C9.75753 2.06991 9.87358 2 10 2C10.1264 2 10.2425 2.06991 10.3016 2.18166L13.5716 8.36427C14.0766 9.31916 15.4143 9.39862 16.0287 8.51023L18.2519 5.29632C18.3847 5.10442 18.673 5.1613 18.6977 5.39332C18.8616 6.92477 19 8.49705 19 10.1C19 11.7029 18.8616 13.2752 18.6977 14.8066C18.4758 16.8812 16.8073 18.5498 14.7337 18.7809C13.1936 18.9525 11.6123 19.1 10 19.1C8.38773 19.1 6.80638 18.9525 5.26623 18.7809C3.19269 18.5498 1.52416 16.8812 1.30221 14.8066C1.13836 13.2752 1 11.7029 1 10.1C1 8.49705 1.13836 6.92477 1.30221 5.39332Z" fill="#FF2727"/>
<path d="M1.30221 5.39332C1.32703 5.1613 1.61527 5.10442 1.74802 5.29632L3.97125 8.51024C4.58579 9.39862 5.92339 9.31916 6.42844 8.36427L9.69842 2.18166C9.75753 2.06991 9.87358 2 10 2C10.1264 2 10.2425 2.06991 10.3016 2.18166L13.5716 8.36427C14.0766 9.31916 15.4143 9.39862 16.0287 8.51023L18.2519 5.29632C18.3847 5.10442 18.673 5.1613 18.6977 5.39332C18.8616 6.92477 19 8.49705 19 10.1C19 11.7029 18.8616 13.2752 18.6977 14.8066C18.4758 16.8812 16.8073 18.5498 14.7337 18.7809C13.1936 18.9525 11.6123 19.1 10 19.1C8.38773 19.1 6.80638 18.9525 5.26623 18.7809C3.19269 18.5498 1.52416 16.8812 1.30221 14.8066C1.13836 13.2752 1 11.7029 1 10.1C1 8.49705 1.13836 6.92477 1.30221 5.39332Z" stroke="#FF2727" stroke-width="1.5" stroke-linecap="round" stroke-linejoin="round"/>
</svg>
