<svg width="18" height="19" viewBox="0 0 18 19" fill="none" xmlns="http://www.w3.org/2000/svg">
<g clip-path="url(#clip0_17_2)">
<ellipse cx="9.00003" cy="7.41583" rx="4.09091" ry="4.5" fill="white"/>
<path d="M8.59092 17.6431L3.27274 15.5977L2.86365 11.9158H13.9091L14.7273 16.0067L8.59092 17.6431Z" fill="white"/>
<path fill-rule="evenodd" clip-rule="evenodd" d="M9 18.4613C14.76 18.4613 18 15.2213 18 9.46129C18 3.70129 14.76 0.461288 9 0.461288C3.24 0.461288 0 3.70129 0 9.46129C0 15.2213 3.24 18.4613 9 18.4613ZM13.6756 15.284C13.3483 14.6741 12.9023 14.1297 12.3585 13.6854C11.4107 12.9106 10.2242 12.4874 9.0001 12.4874C7.77597 12.4874 6.58949 12.9106 5.64169 13.6854C5.09797 14.1297 4.65198 14.6741 4.32454 15.284C5.39475 16.0533 6.91673 16.5327 9.00014 16.5327C11.0835 16.5327 12.6055 16.0533 13.6756 15.284ZM12.028 7.23545C12.028 9.17392 10.9376 10.2643 8.99913 10.2643C7.06067 10.2643 5.97028 9.17392 5.97028 7.23545C5.97028 5.29699 7.06067 4.2066 8.99913 4.2066C10.9376 4.2066 12.028 5.29699 12.028 7.23545Z" fill="#FF2727"/>
</g>
<defs>
<clipPath id="clip0_17_2">
<rect width="18" height="18" fill="white" transform="translate(0 0.461288)"/>
</clipPath>
</defs>
</svg>
